<?xml version="1.0" standalone="no"?><!DOCTYPE svg PUBLIC "-//W3C//DTD SVG 1.1//EN"
  "http://www.w3.org/Graphics/SVG/1.1/DTD/svg11.dtd">
<svg t="1717993886131" class="icon" viewBox="0 0 1024 1024" version="1.1" xmlns="http://www.w3.org/2000/svg" p-id="6076"
     xmlns:xlink="http://www.w3.org/1999/xlink" width="200" height="200">
  <path
    d="M512 51.2a460.8 460.8 0 1 1 0 921.6 460.8 460.8 0 0 1 0-921.6z m0 51.2a409.6 409.6 0 1 0 0 819.2 409.6 409.6 0 0 0 0-819.2z"
    fill="#515151" p-id="6077"></path>
  <path
    d="M512 358.4c70.4 0 137.1136 5.2736 196.7616 14.6432l27.0336 4.6592C877.1584 403.9168 972.8 454.2464 972.8 512c0 57.7536-95.6416 108.032-237.0048 134.2976l-27.0336 4.608A1275.1872 1275.1872 0 0 1 512 665.6c-70.4 0-137.1136-5.2736-196.7616-14.6432l-27.0336-4.6592C146.8416 620.0832 51.2 569.7536 51.2 512c0-57.7536 95.6416-108.032 237.0048-134.2976l27.0336-4.608c55.0912-8.704 116.1728-13.824 180.5824-14.592L512 358.4z m0 51.2c-31.5904 0-62.3104 1.1776-91.8528 3.328l-29.0816 2.5088-28.2112 3.072c-23.1424 2.7648-45.2096 6.144-66.048 9.984l-24.4224 4.7616-23.0912 5.12-21.76 5.5296C150.3744 464.5376 102.4 490.8544 102.4 512c0 21.1456 47.9744 47.4624 125.1328 68.096l21.76 5.4784 23.0912 5.1712 24.4224 4.7616c20.8384 3.84 42.9056 7.168 66.048 9.984l28.16 3.072 29.1328 2.5088a1261.4656 1261.4656 0 0 0 183.7056 0l29.0816-2.5088 28.2112-3.072c23.1424-2.7648 45.2096-6.144 66.048-9.984l24.4224-4.7616 23.0912-5.12 21.76-5.5296C873.6256 559.4624 921.6 533.1456 921.6 512c0-21.1456-47.9744-47.4624-125.1328-68.096l-21.76-5.4784-23.0912-5.1712-24.4224-4.7616c-20.8384-3.84-42.9056-7.168-66.048-9.984l-28.16-3.072-29.1328-2.5088c-24.576-1.792-50.0736-2.9184-76.1344-3.2256L512 409.6z"
    fill="#515151" p-id="6078"></path>
</svg>
