<?xml version="1.0" standalone="no"?><!DOCTYPE svg PUBLIC "-//W3C//DTD SVG 1.1//EN"
  "http://www.w3.org/Graphics/SVG/1.1/DTD/svg11.dtd">
<svg t="1717993904745" class="icon" viewBox="0 0 1024 1024" version="1.1" xmlns="http://www.w3.org/2000/svg" p-id="7146"
     xmlns:xlink="http://www.w3.org/1999/xlink" width="200" height="200">
  <path
    d="M1015.562576 826.144477a44.794821 44.794821 0 0 0-5.119408-14.078372L551.616219 24.957114a46.714599 46.714599 0 0 0-63.9926-16.638076 69.112009 69.112009 0 0 0-22.397411 30.076523L12.79852 815.905661a79.990751 79.990751 0 0 0-9.59889 38.39556 101.748235 101.748235 0 0 0 58.873193 86.390012 423.631018 423.631018 0 0 0 111.987051 42.875042A1424.475295 1424.475295 0 0 0 511.940807 1023.881614a1424.475295 1424.475295 0 0 0 339.160784-36.475783 421.071314 421.071314 0 0 0 111.987052-42.875042 101.748235 101.748235 0 0 0 60.792971-87.669864 85.750085 85.750085 0 0 0-6.39926-30.076522zM511.940807 143.343426l340.440636 584.252446A1424.475295 1424.475295 0 0 0 511.940807 691.120089a1423.195443 1423.195443 0 0 0-339.160785 36.475783z m383.955605 728.875724a483.144136 483.144136 0 0 1-92.149345 28.79667 1407.837219 1407.837219 0 0 1-291.80626 28.156744 1407.837219 1407.837219 0 0 1-293.086112-28.156744A479.944506 479.944506 0 0 1 127.985202 872.21915a131.824758 131.824758 0 0 1-26.876893-15.358225 131.824758 131.824758 0 0 1 26.876893-15.358224 482.50421 482.50421 0 0 1 92.149345-28.79667A1407.837219 1407.837219 0 0 1 511.940807 784.549286a1407.837219 1407.837219 0 0 1 293.086112 28.156745 479.944506 479.944506 0 0 1 92.149345 28.79667 131.824758 131.824758 0 0 1 26.876892 15.358224 137.584092 137.584092 0 0 1-26.876892 15.358225zM551.616219 24.957114a44.794821 44.794821 0 0 0-63.9926-16.638076 92.789271 92.789271 0 0 0-22.397411 30.076523"
    fill="#595959" p-id="7147"></path>
</svg>
