<?xml version="1.0" standalone="no"?><!DOCTYPE svg PUBLIC "-//W3C//DTD SVG 1.1//EN"
  "http://www.w3.org/Graphics/SVG/1.1/DTD/svg11.dtd">
<svg t="1717993683318" class="icon" viewBox="0 0 1024 1024" version="1.1" xmlns="http://www.w3.org/2000/svg" p-id="3492"
     xmlns:xlink="http://www.w3.org/1999/xlink" width="200" height="200">
  <path
    d="M896 921.6H128c-12.8 0-23.04-7.68-25.6-20.48-2.56-12.8 2.56-23.04 15.36-28.16l384-179.2c7.68-2.56 15.36-2.56 20.48 0l384 179.2c10.24 5.12 17.92 17.92 15.36 28.16-2.56 12.8-12.8 20.48-25.6 20.48zM243.2 870.4h537.6L512 744.96 243.2 870.4z"
    fill="#595959" p-id="3493"></path>
  <path
    d="M128 921.6c-7.68 0-12.8-2.56-17.92-7.68-7.68-7.68-10.24-20.48-5.12-28.16l384-768c5.12-10.24 17.92-15.36 28.16-12.8 12.8 0 20.48 10.24 20.48 23.04v588.8c0 10.24-5.12 17.92-15.36 23.04l-384 179.2c-2.56 2.56-7.68 2.56-10.24 2.56zM486.4 235.52L184.32 842.24 486.4 701.44V235.52z"
    fill="#595959" p-id="3494"></path>
  <path
    d="M896 921.6c-2.56 0-7.68 0-10.24-2.56l-384-179.2c-10.24-5.12-15.36-12.8-15.36-23.04V128c0-12.8 7.68-23.04 20.48-25.6 12.8-2.56 23.04 2.56 28.16 12.8l384 768c5.12 10.24 2.56 20.48-5.12 28.16-5.12 7.68-10.24 10.24-17.92 10.24z m-358.4-220.16l302.08 140.8L537.6 235.52v465.92z"
    fill="#595959" p-id="3495"></path>
</svg>
