<?xml version="1.0" standalone="no"?><!DOCTYPE svg PUBLIC "-//W3C//DTD SVG 1.1//EN"
  "http://www.w3.org/Graphics/SVG/1.1/DTD/svg11.dtd">
<svg t="1717993920081" class="icon" viewBox="0 0 1025 1024" version="1.1" xmlns="http://www.w3.org/2000/svg" p-id="8140"
     xmlns:xlink="http://www.w3.org/1999/xlink" width="200.1953125" height="200">
  <path
    d="M678.9376 1008.64L31.2576 923.52a33.92 33.92 0 0 1-29.44-20.48 28.8 28.8 0 0 1 8.32-32L481.8176 33.92l7.04-9.6 7.68-5.12h7.68L513.8176 15.36h7.68l11.52 4.48 6.4 5.76L1025.8176 690.56h-3.84a28.16 28.16 0 0 1-7.68 30.72L705.8176 999.68a37.12 37.12 0 0 1-24.32 8.96zM641.8176 940.8l-41.6-260.48-243.2-29.44-247.68 220.16z m64-24.32l213.12-192-245.76-34.56z m-557.44-166.4l167.68-153.6 116.48-303.36z m768-88.96L584.8576 186.24l73.6 439.68z m-332.16-44.8l-64-398.72L385.8176 591.36z"
    fill="#595959" p-id="8141"></path>
</svg>
