<?xml version="1.0" standalone="no"?><!DOCTYPE svg PUBLIC "-//W3C//DTD SVG 1.1//EN"
  "http://www.w3.org/Graphics/SVG/1.1/DTD/svg11.dtd">
<svg t="1717993773425" class="icon" viewBox="0 0 1024 1024" version="1.1" xmlns="http://www.w3.org/2000/svg" p-id="3657"
     xmlns:xlink="http://www.w3.org/1999/xlink" width="200" height="200">
  <path
    d="M873.1 207.6v-1.3c0-18.7-7.3-46.5-41.8-72.1-19.8-14.7-47.1-27.5-80.9-38.1-64.4-20.2-149.3-31.3-239-31.3S336.8 75.9 272.3 96.1c-33.8 10.6-61 23.4-80.9 38.1-26.9 19.9-37.3 41.2-40.5 58.4-1.5 4.3-2.3 8.8-2.3 13.6v610.5c0 4.8 0.8 9.4 2.3 13.6 3.3 17.3 13.6 38.5 40.5 58.4 19.8 14.7 47.1 27.5 80.9 38.1 64.4 20.2 149.3 31.3 239.1 31.3S686 947.2 750.5 927c33.8-10.6 61-23.4 80.9-38.1 34.5-25.6 41.8-53.3 41.8-72.1V207.6z m-642.5 93.2c12.5 5.7 26.4 10.9 41.7 15.7 64.4 20.2 149.3 31.3 239.1 31.3s174.6-11.1 239.1-31.3c14.9-4.7 28.4-9.7 40.7-15.2v420.6c-12.2-5.5-25.8-10.6-40.7-15.2-64.4-20.2-149.3-31.3-239.1-31.3s-174.6 11.1-239.1 31.3c-15.3 4.8-29.2 10-41.7 15.7V300.8z m81-130.8c54.9-15 125.9-23.3 199.8-23.3S656.3 155 711.2 170c50.4 13.8 72.1 29.1 78.5 36.3-6.4 7.1-28 22.5-78.5 36.3-54.9 15-125.9 23.3-199.8 23.3s-144.9-8.3-199.8-23.3c-50.4-13.8-72.1-29.1-78.5-36.3 6.4-7.1 28.1-22.5 78.5-36.3z m399.6 683.1c-54.9 15-125.9 23.3-199.8 23.3s-144.9-8.3-199.8-23.3c-50.4-13.8-72.1-29.1-78.5-36.3 6.4-7.1 28-22.5 78.5-36.3 54.9-15 125.9-23.3 199.8-23.3s144.9 8.3 199.8 23.3c50.4 13.8 72.1 29.1 78.5 36.3-6.4 7.1-28 22.5-78.5 36.3z"
    p-id="3658"></path>
</svg>
